Normalized EMG Linear Envelopes
nRows=238
nColumns=4

endheader
time	 med_gas_r	  soleus_r	 tib_ant_r	
4.59073	  0.108208	  0.355183	  0.814166	
4.62399	  0.107952	  0.348868	  0.768969	
4.65726	  0.108079	  0.342096	  0.735024	
4.69052	  0.108255	  0.336057	  0.704767	
4.72379	  0.108449	  0.330412	  0.669361	
4.75706	  0.108744	  0.326334	  0.637763	
4.79032	  0.109795	  0.326529	  0.619116	
4.82359	  0.112557	  0.332337	  0.612387	
4.85685	  0.116958	  0.342717	  0.613651	
4.89012	  0.121808	  0.355965	  0.610902	
4.92339	  0.125158	  0.369369	  0.600331	
4.95665	  0.125703	  0.379939	  0.585901	
4.98992	  0.123636	  0.384879	  0.561214	
5.02319	  0.119894	  0.382591	  0.510775	
5.05645	  0.115540	  0.374447	  0.435279	
5.08972	  0.111253	  0.362516	  0.350019	
5.12298	  0.107719	  0.349346	  0.268420	
5.15625	  0.105003	  0.337001	  0.198687	
5.18952	  0.103312	  0.325683	  0.144390	
5.22278	  0.102567	  0.314806	  0.105824	
5.25605	  0.101868	  0.304985	  0.081075	
5.28931	  0.100052	  0.298356	  0.067048	
5.32258	  0.097307	  0.296165	  0.060414	
5.35585	  0.094381	  0.297598	  0.058193	
5.38911	  0.092343	  0.300699	  0.058270	
5.42238	  0.091714	  0.303110	  0.059405	
5.45565	  0.092136	  0.303925	  0.061063	
5.48891	  0.093775	  0.302912	  0.062735	
5.52218	  0.097064	  0.300357	  0.064151	
5.55544	  0.102000	  0.297426	  0.065428	
5.58871	  0.108044	  0.294762	  0.066565	
5.62198	  0.114261	  0.291913	  0.067420	
5.65524	  0.118801	  0.288972	  0.067930	
5.68851	  0.121211	  0.285848	  0.068223	
5.72177	  0.122310	  0.282101	  0.068325	
5.75504	  0.123100	  0.277800	  0.068069	
5.78831	  0.124087	  0.273928	  0.067458	
5.82157	  0.124092	  0.271572	  0.066913	
5.85484	  0.122232	  0.270836	  0.066836	
5.8881	  0.119381	  0.270983	  0.067179	
5.92137	  0.116064	  0.270999	  0.067493	
5.95464	  0.112593	  0.270312	  0.067786	
5.9879	  0.109040	  0.269351	  0.068060	
6.02117	  0.105490	  0.269115	  0.068157	
6.05444	  0.102442	  0.269398	  0.068073	
6.0877	  0.100850	  0.269299	  0.067726	
6.12097	  0.101273	  0.269224	  0.067131	
6.15423	  0.103166	  0.269949	  0.066608	
6.1875	  0.105436	  0.271899	  0.066495	
6.22077	  0.106807	  0.274292	  0.066900	
6.25403	  0.107017	  0.275547	  0.067672	
6.2873	  0.107102	  0.274889	  0.068498	
6.32056	  0.108223	  0.272674	  0.068985	
6.35383	  0.110907	  0.270533	  0.069064	
6.3871	  0.114150	  0.269617	  0.068646	
6.42036	  0.116362	  0.269835	  0.067517	
6.45363	  0.116211	  0.269524	  0.065772	
6.4869	  0.113732	  0.267624	  0.063584	
6.52016	  0.110567	  0.265097	  0.061337	
6.55343	  0.108064	  0.263321	  0.059429	
6.58669	  0.106745	  0.262779	  0.058197	
6.61996	  0.106639	  0.263285	  0.057718	
6.65323	  0.107212	  0.265200	  0.058076	
6.68649	  0.107740	  0.268720	  0.059378	
6.71976	  0.108118	  0.272566	  0.061431	
6.75302	  0.108339	  0.275679	  0.063833	
6.78629	  0.108094	  0.277985	  0.066200	
6.81956	  0.107807	  0.280366	  0.068460	
6.85282	  0.108577	  0.283830	  0.070549	
6.88609	  0.110358	  0.288491	  0.072109	
6.91935	  0.112123	  0.294163	  0.072927	
6.95262	  0.113345	  0.300015	  0.073540	
6.98589	  0.114294	  0.306363	  0.074211	
7.01915	  0.115449	  0.312440	  0.074669	
7.05242	  0.117151	  0.317285	  0.074398	
7.08569	  0.119352	  0.321304	  0.073505	
7.11895	  0.122429	  0.325430	  0.072431	
7.15222	  0.126119	  0.330556	  0.071653	
7.18548	  0.129495	  0.338010	  0.071620	
7.21875	  0.131904	  0.348709	  0.072498	
7.25202	  0.133915	  0.361551	  0.074053	
7.28528	  0.135698	  0.373804	  0.075822	
7.31855	  0.137325	  0.385514	  0.077554	
7.35181	  0.138591	  0.396453	  0.078985	
7.38508	  0.139482	  0.405483	  0.080008	
7.41835	  0.139860	  0.412665	  0.081067	
7.45161	  0.140200	  0.421929	  0.082896	
7.48488	  0.140961	  0.435294	  0.085758	
7.51815	  0.142462	  0.451671	  0.089926	
7.55141	  0.145052	  0.468239	  0.095066	
7.58468	  0.148473	  0.480988	  0.100525	
7.61794	  0.152131	  0.487622	  0.105930	
7.65121	  0.155874	  0.487865	  0.111818	
7.68448	  0.159839	  0.484351	  0.118340	
7.71774	  0.162914	  0.478228	  0.124299	
7.75101	  0.164210	  0.468923	  0.127803	
7.78427	  0.163954	  0.458708	  0.126623	
7.81754	  0.162469	  0.450230	  0.121690	
7.85081	  0.160280	  0.442786	  0.115412	
7.88407	  0.157570	  0.436980	  0.109845	
7.91734	  0.154657	  0.435357	  0.106432	
7.9506	  0.152047	  0.438730	  0.105898	
7.98387	  0.149974	  0.444426	  0.108453	
8.01714	  0.148644	  0.449823	  0.113550	
8.0504	  0.148008	  0.454863	  0.119981	
8.08367	  0.147593	  0.460157	  0.126237	
8.11694	  0.146602	  0.466654	  0.130285	
8.1502	  0.144860	  0.473286	  0.129984	
8.18347	  0.142959	  0.478976	  0.126715	
8.21673	  0.140914	  0.482447	  0.123284	
8.25	  0.139525	  0.484079	  0.121460	
8.28327	  0.139875	  0.486428	  0.122461	
8.31653	  0.141666	  0.489000	  0.126346	
8.3498	  0.143810	  0.489331	  0.131834	
8.38306	  0.145817	  0.489395	  0.136620	
8.41633	  0.147522	  0.493037	  0.138053	
8.4496	  0.149309	  0.502176	  0.134629	
8.48286	  0.151040	  0.515736	  0.128801	
8.51613	  0.152233	  0.531506	  0.123362	
8.5494	  0.153024	  0.548344	  0.120232	
8.58266	  0.153684	  0.565522	  0.120003	
8.61593	  0.153723	  0.578856	  0.122442	
8.64919	  0.152647	  0.585386	  0.127003	
8.68246	  0.151310	  0.584971	  0.132090	
8.71573	  0.149836	  0.576861	  0.134698	
8.74899	  0.147833	  0.559329	  0.132301	
8.78226	  0.144799	  0.533149	  0.126346	
8.81552	  0.141727	  0.503910	  0.118903	
8.84879	  0.139984	  0.477695	  0.111441	
8.88206	  0.140121	  0.459767	  0.104886	
8.91532	  0.141943	  0.452317	  0.099656	
8.94859	  0.144370	  0.453646	  0.095710	
8.98185	  0.146485	  0.459108	  0.093034	
9.01512	  0.148361	  0.464937	  0.091813	
9.04839	  0.150021	  0.470198	  0.091833	
9.08165	  0.152079	  0.476444	  0.092666	
9.11492	  0.155066	  0.485595	  0.093913	
9.14819	  0.158218	  0.498218	  0.094998	
9.18145	  0.160891	  0.514241	  0.095386	
9.21472	  0.163687	  0.530676	  0.095354	
9.24798	  0.167123	  0.543569	  0.095573	
9.28125	  0.170204	  0.550155	  0.095899	
9.31452	  0.171681	  0.548414	  0.095731	
9.34778	  0.171978	  0.538795	  0.095273	
9.38105	  0.172851	  0.522907	  0.094764	
9.41431	  0.174753	  0.503738	  0.093949	
9.44758	  0.176414	  0.485873	  0.092717	
9.48085	  0.176165	  0.473735	  0.091343	
9.51411	  0.174123	  0.469261	  0.090084	
9.54738	  0.170922	  0.471077	  0.089339	
9.58065	  0.167049	  0.476510	  0.089399	
9.61391	  0.162932	  0.483991	  0.090406	
9.64718	  0.159787	  0.491376	  0.091956	
9.68044	  0.158443	  0.496424	  0.093601	
9.71371	  0.158446	  0.498817	  0.095343	
9.74698	  0.158951	  0.499663	  0.098112	
9.78024	  0.160143	  0.500102	  0.102638	
9.81351	  0.162088	  0.500661	  0.108926	
9.84677	  0.163734	  0.500836	  0.116378	
9.88004	  0.164133	  0.500911	  0.124496	
9.91331	  0.163996	  0.505228	  0.132894	
9.94657	  0.164171	  0.515080	  0.140964	
9.97984	  0.164366	  0.527469	  0.147097	
10.0131	  0.163671	  0.539533	  0.149265	
10.0464	  0.161563	  0.549375	  0.148499	
10.0796	  0.158075	  0.556263	  0.147390	
10.1129	  0.154101	  0.560708	  0.147517	
10.1462	  0.150701	  0.561878	  0.149294	
10.1794	  0.148927	  0.559800	  0.152382	
10.2127	  0.148898	  0.555063	  0.155260	
10.246	  0.149246	  0.547614	  0.157613	
10.2792	  0.148838	  0.539032	  0.161051	
10.3125	  0.148372	  0.532795	  0.166291	
10.3458	  0.149078	  0.531072	  0.172522	
10.379	  0.151310	  0.531680	  0.177037	
10.4123	  0.154920	  0.532185	  0.178435	
10.4456	  0.159326	  0.531972	  0.176516	
10.4788	  0.163010	  0.530252	  0.171044	
10.5121	  0.165249	  0.527927	  0.164479	
10.5454	  0.166460	  0.526341	  0.159668	
10.5786	  0.167684	  0.524566	  0.158361	
10.6119	  0.169290	  0.521329	  0.159512	
10.6452	  0.170723	  0.517567	  0.159760	
10.6784	  0.171888	  0.513640	  0.156640	
10.7117	  0.173287	  0.509782	  0.152164	
10.745	  0.174459	  0.505803	  0.149182	
10.7782	  0.174341	  0.501285	  0.149045	
10.8115	  0.172175	  0.496006	  0.152030	
10.8448	  0.169550	  0.492932	  0.156781	
10.878	  0.167181	  0.492631	  0.160987	
10.9113	  0.163931	  0.492397	  0.162174	
10.9446	  0.159555	  0.490668	  0.160740	
10.9778	  0.155514	  0.487451	  0.158059	
11.0111	  0.152335	  0.483632	  0.154951	
11.0444	  0.149613	  0.480404	  0.152148	
11.0776	  0.146853	  0.477330	  0.149935	
11.1109	  0.144732	  0.471606	  0.148084	
11.1442	  0.143483	  0.462601	  0.144856	
11.1774	  0.143374	  0.451521	  0.137969	
11.2107	  0.143914	  0.440637	  0.128439	
11.244	  0.144330	  0.431246	  0.118445	
11.2772	  0.144829	  0.423145	  0.109332	
11.3105	  0.145262	  0.416168	  0.101902	
11.3437	  0.144865	  0.411329	  0.096589	
11.377	  0.143377	  0.409002	  0.093484	
11.4103	  0.141919	  0.409849	  0.092362	
11.4435	  0.142253	  0.415422	  0.092593	
11.4768	  0.144907	  0.426033	  0.093540	
11.5101	  0.149536	  0.438455	  0.094531	
11.5433	  0.154770	  0.449883	  0.095350	
11.5766	  0.159154	  0.458981	  0.096214	
11.6099	  0.163139	  0.464597	  0.097684	
11.6431	  0.166794	  0.467691	  0.100027	
11.6764	  0.169646	  0.469062	  0.103487	
11.7097	  0.170591	  0.470168	  0.108320	
11.7429	  0.168577	  0.469062	  0.113698	
11.7762	  0.163889	  0.464371	  0.117774	
11.8095	  0.157862	  0.456770	  0.118262	
11.8427	  0.151725	  0.447832	  0.115294	
11.876	  0.145833	  0.440571	  0.110888	
11.9093	  0.140920	  0.436739	  0.106602	
11.9425	  0.137681	  0.436073	  0.103876	
11.9758	  0.135892	  0.438045	  0.103756	
12.0091	  0.134560	  0.441449	  0.106727	
12.0423	  0.133240	  0.445046	  0.112063	
12.0756	  0.132317	  0.448308	  0.118746	
12.1089	  0.131902	  0.450232	  0.125553	
12.1421	  0.132085	  0.450766	  0.130500	
12.1754	  0.132745	  0.451187	  0.130384	
12.2087	  0.133867	  0.450959	  0.125060	
12.2419	  0.134982	  0.448063	  0.117021	
12.2752	  0.136210	  0.440973	  0.108311	
12.3085	  0.137182	  0.429200	  0.100409	
12.3417	  0.138133	  0.415919	  0.094211	
12.375	  0.139697	  0.404176	  0.089940	
12.4083	  0.142128	  0.395790	  0.087152	
12.4415	  0.145079	  0.390525	  0.085119	
12.4748	  0.147305	  0.387089	  0.083552	
